<?xml version="1.0" encoding="UTF-8" standalone="no"?>
<svg
   xmlns:dc="http://purl.org/dc/elements/1.1/"
   xmlns:cc="http://creativecommons.org/ns#"
   xmlns:rdf="http://www.w3.org/1999/02/22-rdf-syntax-ns#"
   xmlns:svg="http://www.w3.org/2000/svg"
   xmlns="http://www.w3.org/2000/svg"
   xmlns:sodipodi="http://sodipodi.sourceforge.net/DTD/sodipodi-0.dtd"
   xmlns:inkscape="http://www.inkscape.org/namespaces/inkscape"
   id="Ebene_1"
   data-name="Ebene 1"
   viewBox="0 0 54 54"
   version="1.1"
   sodipodi:docname="hedgehog-logo-white-inside.svg"
   width="54"
   height="54"
   inkscape:version="0.92.4 (fd57863, 2020-04-02)">
  <metadata
     id="metadata31">
    <rdf:RDF>
      <cc:Work
         rdf:about="">
        <dc:format>image/svg+xml</dc:format>
        <dc:type
           rdf:resource="http://purl.org/dc/dcmitype/StillImage" />
        <dc:title>Zeichenfläche 1</dc:title>
      </cc:Work>
    </rdf:RDF>
  </metadata>
  <sodipodi:namedview
     pagecolor="#ffffff"
     bordercolor="#666666"
     borderopacity="1"
     objecttolerance="10"
     gridtolerance="10"
     guidetolerance="10"
     inkscape:pageopacity="0"
     inkscape:pageshadow="2"
     inkscape:window-width="1920"
     inkscape:window-height="1031"
     id="namedview29"
     showgrid="false"
     fit-margin-top="0"
     fit-margin-left="0"
     fit-margin-right="0"
     fit-margin-bottom="0"
     inkscape:zoom="5.78"
     inkscape:cx="42.968551"
     inkscape:cy="0.79551843"
     inkscape:window-x="0"
     inkscape:window-y="25"
     inkscape:window-maximized="1"
     inkscape:current-layer="Ebene_1" />
  <defs
     id="defs4">
    <style
       id="style2">.cls-1{fill:#7cd001;}</style>
  </defs>
  <title
     id="title6">Zeichenfläche 1</title>
  <g
     id="g827">
    <path
       d="m 40.603516,18.007812 c -2.462503,-0.100461 -3.90084,0.432983 -6.19336,2.28711 l -0.388672,0.314453 -0.943359,-0.449219 c -2.002454,-0.957085 -4.016585,-0.479636 -5.197266,0.66211 -1.180681,1.141745 -1.50936,2.977423 -0.173828,4.597656 0.450516,0.546553 0.903678,0.918086 1.457031,1.128906 0.553354,0.210821 1.194404,0.259815 2.021485,0.203125 0.374466,-0.02567 0.749769,-0.02999 1.048828,-0.01758 0.149529,0.0062 0.28,0.01748 0.378906,0.03125 0.09891,0.01377 0.173178,0.03781 0.171875,0.03711 0.101546,0.05435 0.154731,0.126973 0.185547,0.248047 0.03082,0.121075 0.02882,0.292253 -0.01563,0.494141 -0.08889,0.403776 -0.33983,0.927936 -0.697266,1.466797 -0.71487,1.077721 -1.859476,2.216585 -2.929687,2.708984 -0.351832,0.161878 -0.59836,0.244327 -1.080078,0.294922 -0.481719,0.0506 -1.194313,0.06175 -2.425781,0.0625 -0.763467,4.59e-4 -1.479482,0.01682 -2.021485,0.04102 -0.271001,0.0121 -0.498137,0.02671 -0.667969,0.04297 -0.08492,0.0081 -0.155621,0.01562 -0.21289,0.02539 -0.05727,0.0098 -0.08656,0.0037 -0.16211,0.05273 -0.114646,0.07442 -0.172888,0.178527 -0.236328,0.306641 -0.06344,0.128114 -0.11887,0.27925 -0.152343,0.431641 -0.171909,0.782697 -1.044123,1.965979 -1.775391,2.394531 -0.177592,0.104076 -0.632587,0.287092 -1.1875,0.474609 -0.554913,0.187518 -1.21815,0.385268 -1.853516,0.548828 -2.392886,0.615994 -3.791524,1.042865 -4.773437,1.65625 -0.981913,0.613386 -1.521053,1.41269 -2.169922,2.701172 -0.176333,0.35015 -0.310969,0.619988 -0.392578,0.857422 -0.08161,0.237434 -0.108938,0.452932 -0.05078,0.66211 0.116313,0.418355 0.506906,0.725881 1.216796,1.3125 1.017033,0.840427 1.864621,1.289325 2.988282,1.572265 0.568596,0.143175 1.050382,0.43605 1.763672,1.091797 0.486347,0.447114 0.75143,0.690411 1.046875,0.826172 0.295444,0.135761 0.586543,0.141528 1.070312,0.140625 0.558082,-0.0011 1.29299,-0.05065 1.671875,-0.113281 0.396735,-0.06558 0.795703,-0.278357 1.107422,-0.541016 0.311719,-0.262659 0.554687,-0.569208 0.554688,-0.90625 0,-0.195809 0.05918,-0.348615 0.224609,-0.511719 0.165425,-0.163103 0.444815,-0.328284 0.865234,-0.484375 0.840838,-0.312181 2.232869,-0.593594 4.347657,-0.90625 1.325398,-0.19595 2.151865,-0.274118 2.738281,-0.21289 0.586416,0.06123 0.93724,0.247193 1.376953,0.617187 0.609689,0.513019 1.210678,0.813869 1.908203,0.894531 0.697525,0.08066 1.479787,-0.05505 2.474609,-0.375 0.217322,-0.06989 0.386491,-0.122545 0.53125,-0.195312 0.14476,-0.07277 0.266929,-0.173185 0.351563,-0.3125 0.169267,-0.27863 0.21002,-0.66035 0.310547,-1.400391 0.07575,-0.557676 0.191397,-0.935673 0.429687,-1.285156 0.238291,-0.349483 0.608845,-0.679172 1.208985,-1.107422 1.51321,-1.079806 3.086686,-2.828015 3.849609,-4.285156 0.314228,-0.60016 0.633301,-1.381358 0.855469,-2.039063 0.111084,-0.328852 0.198028,-0.624401 0.248047,-0.857422 0.02501,-0.11651 0.0408,-0.217744 0.04492,-0.304687 0.0041,-0.08694 0.02658,-0.168736 -0.07422,-0.269531 -0.06303,-0.06303 -0.101199,-0.05532 -0.134766,-0.06055 -0.03357,-0.0052 -0.06534,-0.0078 -0.101562,-0.0078 -0.07245,-9.9e-5 -0.160663,0.0064 -0.263672,0.01758 -0.206019,0.02239 -0.4708,0.06468 -0.751953,0.123047 -0.886498,0.184037 -1.941586,0.149586 -2.785157,-0.03125 -0.421785,-0.09042 -0.791071,-0.216877 -1.05664,-0.363281 -0.26557,-0.146404 -0.412657,-0.311295 -0.445313,-0.441406 -0.04145,-0.165163 -0.0023,-0.481157 0.05859,-0.589844 0.02883,-0.05149 0.04849,-0.07297 0.0957,-0.09961 0.04721,-0.02664 0.130558,-0.05512 0.275391,-0.07617 0.289665,-0.04211 0.80622,-0.05415 1.701172,-0.05859 1.932662,-0.0096 2.190225,-0.05748 3.582031,-0.630859 2.575651,-1.061096 5.157574,-2.733272 6.779297,-4.398438 0.185394,-0.190361 0.326898,-0.334006 0.429687,-0.449218 0.10279,-0.115213 0.169347,-0.195702 0.208985,-0.298829 0.01982,-0.05156 0.03217,-0.119009 0.01172,-0.185547 -0.02045,-0.06654 -0.06708,-0.115402 -0.109375,-0.144531 -0.0846,-0.05826 -0.166235,-0.07662 -0.267578,-0.107422 -0.457951,-0.139173 -0.857036,-0.499208 -1.097656,-0.935547 -0.24062,-0.436338 -0.318009,-0.93992 -0.173828,-1.353515 0.05011,-0.143739 0.09381,-0.252956 0.09961,-0.378906 0.0029,-0.06298 -0.0079,-0.136773 -0.04883,-0.201172 -0.04097,-0.0644 -0.105593,-0.107523 -0.169922,-0.132813 -0.128658,-0.05058 -0.275519,-0.05763 -0.492187,-0.05859 -0.216669,-9.67e-4 -0.501495,0.0085 -0.878906,0.02344 -0.300298,0.0119 -0.472718,-0.0025 -0.597657,-0.05273 -0.124939,-0.05022 -0.22744,-0.141466 -0.382812,-0.333985 -1.027253,-1.27286 -2.174279,-2.244307 -3.277344,-2.761719 -0.989377,-0.464084 -1.458233,-0.566958 -2.880859,-0.625 z m -0.320313,2.935547 c 0.505027,-0.05109 1.027554,0.04598 1.417969,0.291016 1.132513,0.7108 1.220077,2.278708 0.179687,3.019531 -0.249173,0.177427 -0.813318,0.381647 -1.166015,0.414063 -0.988311,0.09083 -1.741347,-0.3815 -2.091797,-1.029297 -0.35045,-0.647797 -0.306224,-1.463307 0.361328,-2.13086 0.313663,-0.313661 0.793861,-0.513366 1.298828,-0.564453 z"
       id="path819"
       style="fill:#ffffff;fill-opacity:1;stroke:none;stroke-width:0.17301038;stroke-miterlimit:4;stroke-dasharray:none;stroke-opacity:1"
       inkscape:original="M 40.595703 18.181641 C 38.159665 18.082259 36.797853 18.587044 34.519531 20.429688 L 34.044922 20.8125 L 33.003906 20.316406 C 29.120497 18.460307 25.265675 22.187632 27.839844 25.310547 C 28.71759 26.375404 29.545911 26.691658 31.173828 26.580078 C 31.935368 26.527879 32.697327 26.559481 32.867188 26.650391 C 34.01421 27.264259 31.637079 30.847863 29.400391 31.876953 C 28.680076 32.20837 28.287161 32.250453 25.822266 32.251953 C 24.299775 32.252869 22.963186 32.312306 22.851562 32.384766 C 22.739939 32.457224 22.599273 32.741511 22.539062 33.015625 C 22.350251 33.875276 21.475286 35.056377 20.681641 35.521484 C 20.265117 35.765583 18.875576 36.234979 17.595703 36.564453 C 12.81608 37.794858 12.052958 38.271851 10.763672 40.832031 C 10.059523 42.230285 10.073859 42.281087 11.492188 43.453125 C 12.496378 44.28294 13.311816 44.712686 14.414062 44.990234 C 15.015416 45.141657 15.528775 45.45821 16.251953 46.123047 C 17.223196 47.015941 17.287878 47.044769 18.251953 47.042969 C 18.799925 47.041922 19.540278 46.992474 19.896484 46.933594 C 20.604388 46.816582 21.412109 46.136242 21.412109 45.65625 C 21.412109 44.708851 22.760541 44.208516 26.998047 43.582031 C 29.656134 43.189052 30.341853 43.261236 31.25 44.025391 C 32.435606 45.023011 33.5027 45.145988 35.46875 44.513672 C 36.337241 44.23435 36.341952 44.225906 36.542969 42.746094 C 36.698137 41.603807 37.040435 41.102241 38.253906 40.236328 C 39.740945 39.175198 41.307179 37.431958 42.050781 36.011719 C 42.666455 34.835811 43.317966 32.907811 43.154297 32.744141 C 43.105461 32.695306 42.613265 32.748537 42.060547 32.863281 C 40.226523 33.244023 37.775765 32.718975 37.570312 31.900391 C 37.515014 31.680073 37.549394 31.357009 37.646484 31.183594 C 37.801207 30.907249 38.076817 30.868275 39.869141 30.859375 C 41.799743 30.849799 41.995939 30.814345 43.384766 30.242188 C 45.938733 29.190026 48.509557 27.523481 50.107422 25.882812 C 50.848479 25.121902 50.854118 25.106238 50.453125 24.984375 C 49.433471 24.674498 48.739367 23.416399 49.068359 22.472656 C 49.268177 21.89945 49.259301 21.895258 47.75 21.955078 C 47.134251 21.979482 46.95118 21.90565 46.626953 21.503906 C 45.612311 20.246672 44.479223 19.290526 43.410156 18.789062 C 42.430037 18.32932 42.012414 18.239441 40.595703 18.181641 z M 40.265625 20.771484 C 40.803744 20.717043 41.361905 20.817342 41.792969 21.087891 C 43.020458 21.858301 43.119173 23.583702 41.980469 24.394531 C 41.688698 24.60229 41.12619 24.803474 40.730469 24.839844 C 38.627844 25.033092 37.429003 22.817092 38.861328 21.384766 C 39.210848 21.035247 39.727506 20.825925 40.265625 20.771484 z "
       inkscape:radius="0.17301001"
       sodipodi:type="inkscape:offset" />
    <g
       transform="translate(0.17476963,6.8946474)"
       id="g817">
      <path
         class="cls-1"
         d="M 52,13.71 A 15.87,15.87 0 0 0 48.16,13.25 H 47.6 A 8.61,8.61 0 0 0 45.3,11 9.27,9.27 0 0 0 42.9,9.87 C 40.7,7.31 38.58,3.5 35.83,2.2 a 6.25,6.25 0 0 1 0,3.23 c -2,-2.09 -4,-4.88 -9.77,-5.43 a 7,7 0 0 1 0.05,4.06 C 23.18,1.79 19.92,0.74 15.14,1 a 9.08,9.08 0 0 1 2.33,5.2 14.29,14.29 0 0 0 -12.08,0.2 7.63,7.63 0 0 1 4.61,4.47 10.32,10.32 0 0 0 -9.92,5.2 7,7 0 0 1 5.67,2 C 3.08,18.72 0.59,21.59 0,26.16 a 4.93,4.93 0 0 1 4.76,-1 C 3.44,26.81 2.49,29.52 3.84,33.37 A 8.59,8.59 0 0 1 6.61,30.7 c -0.14,1.64 0.23,2.92 1.8,5.19 1.19,1.71 4.53,3.87 6,4 a 2,2 0 0 1 0.33,0.36 4,4 0 0 0 3.56,1.68 10.58,10.58 0 0 0 1.89,-0.19 3.22,3.22 0 0 0 2.77,-2.47 v -0.08 c 1,-0.29 4.52,-0.79 5.74,-1 l 0.53,-0.07 c 0.3,0 0.44,0.05 0.9,0.44 a 5.45,5.45 0 0 0 1.15,0.79 4.32,4.32 0 0 0 1.93,0.41 9,9 0 0 0 2.43,-0.39 c 2.42,-0.69 2.46,-2.15 2.48,-3.11 0,-0.65 0.05,-0.84 0.34,-1 a 14.78,14.78 0 0 0 5.05,-5.31 c 0,0 1.66,-3.31 1.23,-5.33 0.7,-0.32 1.39,-0.68 2.08,-1.07 a 24.8,24.8 0 0 0 2.55,-1.68 C 51.82,20 53.48,17.75 53.65,16 A 2.35,2.35 0 0 0 52,13.71 Z m -3.61,6.8 A 23.21,23.21 0 0 1 46,22.08 23.48,23.48 0 0 1 43.5,23.33 l -0.93,0.37 a 8.11,8.11 0 0 1 -4.15,0.22 0.83,0.83 0 0 0 -0.51,1.57 5.06,5.06 0 0 0 2,0.52 c 0.28,0 0.55,0 0.82,0 a 6.24,6.24 0 0 0 2.43,-0.45 11,11 0 0 1 -1.16,3.59 13.13,13.13 0 0 1 -4.5,4.7 2.6,2.6 0 0 0 -1.07,2.36 c 0,0.82 0,1.2 -1.28,1.56 a 7.38,7.38 0 0 1 -2,0.33 2.7,2.7 0 0 1 -2,-0.81 2.78,2.78 0 0 0 -1.84,-0.83 h -0.35 l -0.52,0.08 a 36.45,36.45 0 0 0 -6.44,1.2 1.49,1.49 0 0 0 -0.69,1 1.6,1.6 0 0 1 -1.49,1.34 9,9 0 0 1 -1.59,0.17 2.34,2.34 0 0 1 -2.25,-1 2.09,2.09 0 0 0 -1.49,-1 6.43,6.43 0 0 1 -3,-1.45 8.07,8.07 0 0 1 -1.64,-1.6 c 0.28,-0.52 0.45,-0.81 0.66,-1.23 1.08,-2.19 1.37,-2.93 5.85,-4.13 0.47,-0.13 0.92,-0.23 1.35,-0.32 2.14,-0.47 4,-0.89 4.74,-4 a 4.41,4.41 0 0 1 1.72,-0.3 c 0.41,0 0.82,0 1.26,0.07 0.44,0.07 0.91,0.07 1.38,0.07 1.79,0 3.89,-0.48 5.9,-4.06 a 1.26,1.26 0 0 0 0.21,-1.16 0.83,0.83 0 0 0 -1,-0.48 4.69,4.69 0 0 1 -1.42,0.21 3.72,3.72 0 0 1 -3.75,-3.68 c 0,-1.86 1.81,-3.38 4,-3.38 a 4.53,4.53 0 0 1 2.58,0.78 0.83,0.83 0 0 0 1.08,-0.12 7.62,7.62 0 0 1 5.59,-2.36 7.78,7.78 0 0 1 4.34,1.28 6.82,6.82 0 0 1 2.08,2.15 0.83,0.83 0 0 0 0.79,0.4 14.47,14.47 0 0 1 2.12,0 1.74,1.74 0 0 0 -0.46,1.06 2,2 0 0 0 2,2.13 13.79,13.79 0 0 1 -2.53,2.38 z"
         id="path8"
         inkscape:connector-curvature="0"
         style="fill:#7cd001" />
      <path
         class="cls-1"
         d="m 40.32,13.91 a 2.13,2.13 0 0 0 -2.25,2 2.13,2.13 0 0 0 2.25,2 h 0.22 a 2.35,2.35 0 0 0 1.56,-0.75 1.86,1.86 0 0 0 0.37,-0.61 v 0 a 1.76,1.76 0 0 0 0.11,-0.61 1.74,1.74 0 0 0 -0.07,-0.48 2.22,2.22 0 0 0 -2.19,-1.55 z"
         id="path10"
         inkscape:connector-curvature="0"
         style="fill:#7cd001" />
    </g>
  </g>
</svg>
