<?xml version="1.0" encoding="UTF-8" standalone="no"?>
<svg
   xmlns:dc="http://purl.org/dc/elements/1.1/"
   xmlns:cc="http://creativecommons.org/ns#"
   xmlns:rdf="http://www.w3.org/1999/02/22-rdf-syntax-ns#"
   xmlns:svg="http://www.w3.org/2000/svg"
   xmlns="http://www.w3.org/2000/svg"
   xmlns:sodipodi="http://sodipodi.sourceforge.net/DTD/sodipodi-0.dtd"
   xmlns:inkscape="http://www.inkscape.org/namespaces/inkscape"
   id="Ebene_1"
   data-name="Ebene 1"
   viewBox="0 0 54 54"
   version="1.1"
   sodipodi:docname="hedgehog-logo.svg"
   width="54"
   height="54"
   inkscape:version="0.92.4 (fd57863, 2020-04-02)">
  <metadata
     id="metadata31">
    <rdf:RDF>
      <cc:Work
         rdf:about="">
        <dc:format>image/svg+xml</dc:format>
        <dc:type
           rdf:resource="http://purl.org/dc/dcmitype/StillImage" />
        <dc:title>Zeichenfläche 1</dc:title>
      </cc:Work>
    </rdf:RDF>
  </metadata>
  <sodipodi:namedview
     pagecolor="#ffffff"
     bordercolor="#666666"
     borderopacity="1"
     objecttolerance="10"
     gridtolerance="10"
     guidetolerance="10"
     inkscape:pageopacity="0"
     inkscape:pageshadow="2"
     inkscape:window-width="1920"
     inkscape:window-height="1031"
     id="namedview29"
     showgrid="false"
     fit-margin-top="0"
     fit-margin-left="0"
     fit-margin-right="0"
     fit-margin-bottom="0"
     inkscape:zoom="5.78"
     inkscape:cx="68.920108"
     inkscape:cy="0.79551843"
     inkscape:window-x="0"
     inkscape:window-y="25"
     inkscape:window-maximized="1"
     inkscape:current-layer="Ebene_1" />
  <defs
     id="defs4">
    <style
       id="style2">.cls-1{fill:#7cd001;}</style>
  </defs>
  <title
     id="title6">Zeichenfläche 1</title>
  <g
     id="g817"
     transform="translate(0.17476963,6.8946474)">
    <path
       style="fill:#7cd001"
       inkscape:connector-curvature="0"
       id="path8"
       d="M 52,13.71 A 15.87,15.87 0 0 0 48.16,13.25 H 47.6 A 8.61,8.61 0 0 0 45.3,11 9.27,9.27 0 0 0 42.9,9.87 C 40.7,7.31 38.58,3.5 35.83,2.2 a 6.25,6.25 0 0 1 0,3.23 c -2,-2.09 -4,-4.88 -9.77,-5.43 a 7,7 0 0 1 0.05,4.06 C 23.18,1.79 19.92,0.74 15.14,1 a 9.08,9.08 0 0 1 2.33,5.2 14.29,14.29 0 0 0 -12.08,0.2 7.63,7.63 0 0 1 4.61,4.47 10.32,10.32 0 0 0 -9.92,5.2 7,7 0 0 1 5.67,2 C 3.08,18.72 0.59,21.59 0,26.16 a 4.93,4.93 0 0 1 4.76,-1 C 3.44,26.81 2.49,29.52 3.84,33.37 A 8.59,8.59 0 0 1 6.61,30.7 c -0.14,1.64 0.23,2.92 1.8,5.19 1.19,1.71 4.53,3.87 6,4 a 2,2 0 0 1 0.33,0.36 4,4 0 0 0 3.56,1.68 10.58,10.58 0 0 0 1.89,-0.19 3.22,3.22 0 0 0 2.77,-2.47 v -0.08 c 1,-0.29 4.52,-0.79 5.74,-1 l 0.53,-0.07 c 0.3,0 0.44,0.05 0.9,0.44 a 5.45,5.45 0 0 0 1.15,0.79 4.32,4.32 0 0 0 1.93,0.41 9,9 0 0 0 2.43,-0.39 c 2.42,-0.69 2.46,-2.15 2.48,-3.11 0,-0.65 0.05,-0.84 0.34,-1 a 14.78,14.78 0 0 0 5.05,-5.31 c 0,0 1.66,-3.31 1.23,-5.33 0.7,-0.32 1.39,-0.68 2.08,-1.07 a 24.8,24.8 0 0 0 2.55,-1.68 C 51.82,20 53.48,17.75 53.65,16 A 2.35,2.35 0 0 0 52,13.71 Z m -3.61,6.8 A 23.21,23.21 0 0 1 46,22.08 23.48,23.48 0 0 1 43.5,23.33 l -0.93,0.37 a 8.11,8.11 0 0 1 -4.15,0.22 0.83,0.83 0 0 0 -0.51,1.57 5.06,5.06 0 0 0 2,0.52 c 0.28,0 0.55,0 0.82,0 a 6.24,6.24 0 0 0 2.43,-0.45 11,11 0 0 1 -1.16,3.59 13.13,13.13 0 0 1 -4.5,4.7 2.6,2.6 0 0 0 -1.07,2.36 c 0,0.82 0,1.2 -1.28,1.56 a 7.38,7.38 0 0 1 -2,0.33 2.7,2.7 0 0 1 -2,-0.81 2.78,2.78 0 0 0 -1.84,-0.83 h -0.35 l -0.52,0.08 a 36.45,36.45 0 0 0 -6.44,1.2 1.49,1.49 0 0 0 -0.69,1 1.6,1.6 0 0 1 -1.49,1.34 9,9 0 0 1 -1.59,0.17 2.34,2.34 0 0 1 -2.25,-1 2.09,2.09 0 0 0 -1.49,-1 6.43,6.43 0 0 1 -3,-1.45 8.07,8.07 0 0 1 -1.64,-1.6 c 0.28,-0.52 0.45,-0.81 0.66,-1.23 1.08,-2.19 1.37,-2.93 5.85,-4.13 0.47,-0.13 0.92,-0.23 1.35,-0.32 2.14,-0.47 4,-0.89 4.74,-4 a 4.41,4.41 0 0 1 1.72,-0.3 c 0.41,0 0.82,0 1.26,0.07 0.44,0.07 0.91,0.07 1.38,0.07 1.79,0 3.89,-0.48 5.9,-4.06 a 1.26,1.26 0 0 0 0.21,-1.16 0.83,0.83 0 0 0 -1,-0.48 4.69,4.69 0 0 1 -1.42,0.21 3.72,3.72 0 0 1 -3.75,-3.68 c 0,-1.86 1.81,-3.38 4,-3.38 a 4.53,4.53 0 0 1 2.58,0.78 0.83,0.83 0 0 0 1.08,-0.12 7.62,7.62 0 0 1 5.59,-2.36 7.78,7.78 0 0 1 4.34,1.28 6.82,6.82 0 0 1 2.08,2.15 0.83,0.83 0 0 0 0.79,0.4 14.47,14.47 0 0 1 2.12,0 1.74,1.74 0 0 0 -0.46,1.06 2,2 0 0 0 2,2.13 13.79,13.79 0 0 1 -2.53,2.38 z"
       class="cls-1" />
    <path
       style="fill:#7cd001"
       inkscape:connector-curvature="0"
       id="path10"
       d="m 40.32,13.91 a 2.13,2.13 0 0 0 -2.25,2 2.13,2.13 0 0 0 2.25,2 h 0.22 a 2.35,2.35 0 0 0 1.56,-0.75 1.86,1.86 0 0 0 0.37,-0.61 v 0 a 1.76,1.76 0 0 0 0.11,-0.61 1.74,1.74 0 0 0 -0.07,-0.48 2.22,2.22 0 0 0 -2.19,-1.55 z"
       class="cls-1" />
  </g>
</svg>
