<?xml version="1.0" standalone="no"?>
<!DOCTYPE svg PUBLIC "-//W3C//DTD SVG 20010904//EN"
 "http://www.w3.org/TR/2001/REC-SVG-20010904/DTD/svg10.dtd">
<svg version="1.0" xmlns="http://www.w3.org/2000/svg"
 width="700.000000pt" height="700.000000pt" viewBox="0 0 700.000000 700.000000"
 preserveAspectRatio="xMidYMid meet">
<metadata>
Created by potrace 1.11, written by Peter Selinger 2001-2013
</metadata>
<g transform="translate(0.000000,700.000000) scale(0.100000,-0.100000)"
fill="#000000" stroke="none">
<path d="M3407 6104 c-2 -3 1 -29 9 -57 33 -121 34 -300 3 -422 l-11 -44 -77
54 c-162 116 -350 208 -528 260 -214 63 -359 82 -631 83 -142 1 -181 -1 -176
-11 4 -6 24 -32 45 -57 109 -133 207 -351 235 -524 3 -21 7 -47 9 -57 5 -24 1
-24 -81 7 -166 64 -345 106 -504 120 -306 26 -648 -30 -910 -149 -62 -28 -64
-30 -40 -40 261 -112 438 -281 552 -529 l17 -37 -112 0 c-62 0 -128 -2 -147
-5 -19 -3 -51 -8 -70 -10 -92 -11 -257 -61 -355 -107 -228 -106 -431 -285
-567 -499 l-35 -55 91 0 c159 0 273 -27 410 -95 71 -35 217 -138 223 -158 2
-4 -30 -19 -71 -35 -211 -79 -402 -272 -525 -532 -31 -65 -96 -250 -105 -299
-2 -11 -9 -50 -16 -86 -6 -36 -13 -73 -15 -83 -3 -19 2 -17 50 19 101 73 234
116 360 116 44 0 91 -2 105 -5 14 -3 42 -8 62 -12 l37 -7 -38 -57 c-164 -242
-206 -534 -124 -856 14 -55 28 -110 30 -122 7 -33 15 -29 53 24 50 70 176 193
247 241 34 23 64 42 67 42 2 0 3 -23 2 -50 -8 -149 52 -328 174 -521 114 -179
246 -307 455 -441 140 -90 309 -168 365 -168 11 0 41 -27 72 -63 70 -85 147
-140 238 -174 70 -26 85 -28 220 -27 135 0 198 8 310 36 120 31 233 137 275
260 21 63 19 62 172 88 35 6 75 12 90 15 132 23 223 38 311 50 20 3 46 8 58
10 12 3 36 7 55 10 19 2 59 8 89 13 75 11 104 1 185 -64 82 -65 188 -119 265
-132 179 -32 491 32 618 128 93 70 129 154 137 313 1 41 6 84 9 95 4 11 32 37
64 57 225 149 418 344 567 574 128 197 229 517 223 701 l-3 85 120 61 c455
231 794 525 954 824 80 151 95 273 45 371 -60 120 -152 168 -374 195 -25 3
-51 7 -58 10 -8 2 -82 7 -165 10 l-152 6 -24 31 c-48 62 -197 204 -257 244
-81 55 -175 104 -254 132 -84 30 -97 43 -293 304 -328 437 -455 572 -651 694
-20 12 -38 18 -41 13 -3 -5 -1 -28 5 -52 19 -80 17 -220 -4 -323 -3 -11 -5
-22 -5 -25 -1 -3 -72 67 -158 155 -222 226 -371 333 -580 417 -87 35 -238 80
-308 93 -16 2 -39 7 -50 9 -11 2 -49 7 -85 11 -36 4 -68 9 -71 11 -3 2 -9 1
-12 -2z m2013 -1460 c257 -57 457 -187 599 -391 23 -34 55 -66 69 -72 15 -5
91 -9 169 -9 79 1 145 -1 148 -4 3 -3 -6 -25 -20 -50 -53 -95 -23 -229 68
-301 41 -32 97 -57 130 -57 9 0 18 -4 21 -9 8 -13 -166 -187 -274 -272 -264
-210 -647 -413 -883 -469 -99 -23 -254 -31 -353 -18 -134 18 -137 18 -170 -3
-41 -25 -54 -62 -45 -129 5 -38 113 -92 231 -114 69 -13 242 -14 325 -2 28 4
53 7 57 7 5 -1 33 9 64 20 30 12 57 19 59 17 1 -1 -3 -30 -10 -63 -12 -56 -19
-82 -43 -175 -5 -19 -28 -77 -51 -129 -111 -250 -324 -497 -576 -669 -163
-112 -185 -158 -194 -414 -2 -57 -73 -108 -186 -134 -122 -29 -170 -35 -250
-32 -109 5 -156 25 -246 102 -115 97 -189 115 -379 93 -36 -4 -87 -10 -115
-13 -45 -5 -286 -45 -360 -59 -16 -3 -97 -22 -180 -42 -138 -33 -153 -39 -187
-73 -27 -27 -42 -54 -55 -101 -30 -109 -91 -155 -233 -175 -80 -11 -104 -13
-188 -14 -75 -2 -90 1 -147 29 -36 18 -76 47 -92 67 -54 69 -125 134 -152 140
-14 4 -30 9 -36 13 -5 3 -21 7 -35 9 -48 6 -155 45 -230 83 -86 45 -185 120
-283 217 -79 77 -93 98 -78 116 6 7 42 75 82 152 113 220 148 266 261 337 96
61 205 104 428 167 80 22 159 43 176 46 61 10 260 62 315 83 83 32 168 90 222
153 50 58 108 172 128 251 11 46 13 48 68 64 43 13 87 16 186 14 313 -6 433
-6 480 1 195 26 395 177 546 413 90 139 93 147 93 203 0 49 -3 57 -33 84 -30
27 -39 30 -80 25 -25 -3 -57 -8 -71 -12 -58 -14 -164 -17 -222 -5 -201 39
-355 196 -390 398 -22 130 16 247 112 342 70 71 100 91 180 123 164 65 347 53
504 -31 114 -62 137 -59 228 25 161 147 355 239 552 259 33 4 62 8 64 9 10 8
220 -7 282 -21z"/>
<path d="M5208 4305 c-2 -2 -19 -7 -38 -10 -121 -21 -221 -155 -207 -276 13
-108 105 -207 211 -227 64 -12 153 -4 202 17 218 96 217 365 -1 466 -43 20
-157 40 -167 30z"/>
</g>
</svg>
